<?xml version="1.0" encoding="utf-8"?>
<!-- Generator: Adobe Illustrator 16.2.0, SVG Export Plug-In . SVG Version: 6.00 Build 0)  -->
<!DOCTYPE svg PUBLIC "-//W3C//DTD SVG 1.1//EN" "http://www.w3.org/Graphics/SVG/1.1/DTD/svg11.dtd">
<svg version="1.1" id="Layer_1" xmlns="http://www.w3.org/2000/svg" xmlns:xlink="http://www.w3.org/1999/xlink" x="0px" y="0px"
	 width="1765px" height="1650px" viewBox="-439.497 -905.862 1765 1650" enable-background="new -439.497 -905.862 1765 1650"
	 xml:space="preserve">
<g>
	<path fill="#FFFFFF" d="M308.152,485.956L308.152,485.956l-40.283,23.257c26.924,46.632,61.749,87.261,102.187,120.646
		c16.022-6.485,31.581-14.031,46.525-22.651C373.126,575.065,335.939,534.086,308.152,485.956z"/>
	<path fill="#FFFFFF" d="M628.336-402.305c-14.846-8.595-30.35-16.175-46.398-22.678c-2.083,1.722-4.139,3.471-6.188,5.229
		c-8.625,7.413-16.979,15.13-25.015,23.169l32.874,32.875C597.541-377.64,612.491-390.537,628.336-402.305z"/>
	<path fill="#FFFFFF" d="M732.664-458.029c41.857-14.894,86.891-23.03,133.794-23.03c56.593,0,110.465,11.833,159.31,33.113
		c-0.046-17.327-1.295-34.589-3.732-51.659c-48.466-18.067-100.883-27.967-155.577-27.967c-64.076,0-125.031,13.586-180.17,37.99
		C702.384-479.963,717.864-469.421,732.664-458.029z"/>
	<path fill="#FFFFFF" d="M550.735,234.86c8.036,8.039,16.39,15.756,25.015,23.169c8.631,7.413,17.551,14.493,26.733,21.241
		c-0.432-22.063-2.863-44.197-7.294-66.189c-3.926-3.626-7.802-7.313-11.58-11.095L550.735,234.86z"/>
	<path fill="#FFFFFF" d="M866.458,319.334c-56.559,0-110.4-11.818-159.227-33.078c0.012,16.486-0.818,32.928-2.524,49.273
		c50.182,19.56,104.729,30.317,161.751,30.317c54.694,0,107.111-9.9,155.577-27.967c2.438-17.07,3.687-34.332,3.732-51.659
		C976.923,307.502,923.051,319.334,866.458,319.334z"/>
	<path fill="#FFFFFF" d="M1266.654-80.862c0,121.557-54.494,230.614-140.313,304.07c2.459,18.687,3.785,37.426,4.004,56.124
		c110.771-81.374,182.818-212.519,182.818-360.194s-72.047-278.821-182.818-360.194c-0.219,18.697-1.545,37.437-4.004,56.124
		C1212.16-311.476,1266.654-202.42,1266.654-80.862z"/>
	<path fill="#FFFFFF" d="M308.152-647.681L308.152-647.681c27.787-48.13,64.974-89.109,108.428-121.252
		c-14.944-8.619-30.502-16.166-46.525-22.65c-40.438,33.383-75.262,74.013-102.187,120.646l0,0
		c-32.034,55.483-50.743,115.058-57.183,175.005c16.288-9.153,33.161-17.375,50.556-24.593
		C269.285-564.144,284.74-607.132,308.152-647.681z"/>
	<path fill="#FFFFFF" d="M654.333-0.803c51.302,0,101.453-8.923,148.552-25.563c2.549-0.901,5.092-1.802,7.62-2.748
		c2.366-16.879,3.619-34.109,3.626-51.627c-21.454,9.348-43.754,16.871-66.674,22.374c-30.178,7.246-61.403,11.052-93.124,11.052
		c-32.061,0-63.947-3.961-94.968-11.598c18.241,17.292,35.025,35.939,50.211,55.82C624.422-1.582,639.362-0.803,654.333-0.803z"/>
	<path fill="#FFFFFF" d="M271.443-333.196c-6.704-22.483-11.447-45.537-14.15-68.886c-14.959,8.683-29.265,18.375-42.813,28.993
		c0.446,2.612,0.922,5.218,1.41,7.82c12.092,64.208,38.108,125.594,76.755,179.257c24.824,3.241,49.353,8.471,73.358,15.575
		C321.393-216.949,289.385-273.011,271.443-333.196z"/>
	<path fill="#FFFFFF" d="M655.129-847.852c69.811,0,138.865,18.565,199.702,53.688c191.104,110.334,256.816,355.575,146.479,546.678
		l0,0c-23.024,39.881-52.513,74.845-86.654,103.958c2.422,18.366,3.784,37.062,4.042,56.017
		c49.306-36.081,91.481-82.31,122.896-136.719l0,0c123.156-213.316,49.811-487.059-163.508-610.217
		c-67.895-39.198-144.992-59.918-222.957-59.918c-63.094,0-124.452,13.475-180.521,38.258c16.089,9.582,31.64,20.067,46.523,31.481
		C563.594-839.738,608.836-847.852,655.129-847.852z"/>
	<path fill="#FFFFFF" d="M918.698-74.215c-0.258,18.956-1.62,37.651-4.042,56.017c34.142,29.115,63.63,64.078,86.654,103.958l0,0
		c110.337,191.104,44.625,436.344-146.479,546.677c-3.806,2.196-7.636,4.326-11.505,6.393
		c-57.962,30.979-122.751,47.297-188.197,47.297c-46.293,0-91.535-8.114-133.998-23.228c-14.884,11.415-30.435,21.899-46.523,31.481
		c56.069,24.782,117.428,38.259,180.521,38.259c77.965,0,155.063-20.721,222.957-59.919
		c213.318-123.159,286.664-396.901,163.508-610.217l0,0C1010.18,8.095,968.004-38.134,918.698-74.215z"/>
	<path fill="#FFFFFF" d="M814.131-80.983c-0.007-17.519-1.26-34.749-3.626-51.627c-2.528-0.946-5.071-1.847-7.62-2.748
		c-10.707-3.782-21.56-7.203-32.564-10.171l-12.036,44.918C777.414-95.451,796.067-88.853,814.131-80.983z"/>
	<path fill="#FFFFFF" d="M75.503-132.61c-2.364,16.878-3.616,34.108-3.622,51.627c18.063-7.869,36.715-14.468,55.844-19.628
		l-12.035-44.918c-11.003,2.968-21.856,6.389-32.564,10.171C80.578-134.458,78.031-133.557,75.503-132.61z"/>
	<path fill="#FFFFFF" d="M-115.302,85.76L-115.302,85.76c23.026-39.881,52.513-74.843,86.658-103.958
		c-2.426-18.366-3.785-37.061-4.046-56.017c-49.307,36.081-91.48,82.31-122.894,136.718l0,0
		c-27.346,47.365-44.98,97.708-53.569,148.722c13.565,10.645,27.893,20.356,42.875,29.059
		C-160.286,187.343-143.598,134.772-115.302,85.76z"/>
	<path fill="#FFFFFF" d="M577.856,485.956L577.856,485.956c-71.284,123.469-204.235,200.171-346.973,200.171
		c-69.813,0-138.87-18.565-199.704-53.689C-74.089,571.66-141.291,469.941-161.996,358.891
		c-17.412-7.216-34.304-15.438-50.606-24.591c15.088,136.615,92.636,264.584,220.526,338.421
		c67.896,39.198,144.993,59.919,222.96,59.919c159.302,0,307.688-85.614,387.255-223.427L577.856,485.956z"/>
	<path fill="#FFFFFF" d="M310.258-355.607c43.135,45.616,75.675,101.343,93.657,163.208c5.908-24.504,13.708-48.275,23.256-71.147
		c-27.15-60.344-67.324-113.606-116.913-156.208c-2.048-1.757-4.104-3.507-6.183-5.229c-16.051,6.503-31.554,14.083-46.403,22.678
		C276.543-388.29,294.139-372.655,310.258-355.607z"/>
	<path fill="#FFFFFF" d="M181.305,335.529c-1.709-16.345-2.54-32.787-2.527-49.273c-48.824,21.259-102.667,33.078-159.226,33.078
		c-220.668,0-400.197-179.528-400.197-400.196c0-121.558,54.492-230.614,140.313-304.07c-2.459-18.688-3.783-37.427-4.007-56.124
		c-110.771,81.374-182.819,212.519-182.819,360.194c0,246.317,200.392,446.709,446.71,446.709
		C76.573,365.847,131.122,355.089,181.305,335.529z"/>
	<path fill="#FFFFFF" d="M310.258,258.029c49.589-42.602,89.762-95.864,116.913-156.208c-9.548-22.872-17.348-46.643-23.256-71.147
		c-17.981,61.865-50.521,117.592-93.657,163.208c-6.259,6.621-12.744,13.017-19.437,19.199c-4.431,21.992-6.863,44.126-7.294,66.189
		C292.708,272.521,301.63,265.441,310.258,258.029z"/>
	<path fill="#FFFFFF" d="M19.552-527.571c-54.692,0-107.11,9.899-155.58,27.967c-2.438,17.069-3.685,34.332-3.73,51.659
		c48.845-21.281,102.718-33.113,159.31-33.113c46.902,0,91.936,8.136,133.793,23.03c14.798-11.392,30.28-21.934,46.379-31.552
		C144.582-513.985,83.628-527.571,19.552-527.571z"/>
	<path fill="#FFFFFF" d="M-32.69-87.51c0.261-18.956,1.62-37.651,4.046-56.017c-34.145-29.114-63.632-64.077-86.658-103.958l0,0
		C-225.636-438.588-159.923-683.829,31.18-794.163c60.834-35.124,129.89-53.688,199.704-53.688
		c142.738,0,275.688,76.701,346.973,200.171l0,0c23.415,40.548,38.866,83.537,46.914,127.155
		c17.394,7.219,34.265,15.44,50.556,24.593c-6.443-59.947-25.148-119.521-57.188-175.005l0,0
		c-79.566-137.813-227.953-223.426-387.255-223.426c-77.967,0-155.064,20.72-222.96,59.918
		C-205.392-711.287-278.74-437.544-155.583-224.229l0,0C-124.17-169.82-81.997-123.591-32.69-87.51z"/>
	<path fill="#FFFFFF" d="M670.117-365.269c0.492-2.602,0.969-5.208,1.411-7.82c-13.546-10.617-27.854-20.31-42.813-28.993
		c-2.703,23.349-7.442,46.402-14.15,68.886c-17.94,60.185-49.949,116.247-94.559,162.76c24.006-7.104,48.535-12.334,73.358-15.575
		C632.013-239.674,658.027-301.061,670.117-365.269z"/>
	<path fill="#FFFFFF" d="M231.675-47.316c-31.717,0-62.943-3.806-93.123-11.052c-22.92-5.502-45.217-13.025-66.672-22.374
		c0.006,17.519,1.258,34.749,3.622,51.627c2.528,0.946,5.075,1.847,7.623,2.748c47.101,16.641,97.25,25.563,148.55,25.563
		c14.972,0,29.911-0.779,44.76-2.292c15.185-19.88,31.97-38.528,50.209-55.82C295.626-51.277,263.736-47.316,231.675-47.316z"/>
	<path fill="#FFFFFF" d="M178.811,279.11c0.298-18.639,1.72-37.319,4.237-55.963C133.444,180.669,94.318,126.3,70.138,64.491
		c-17.634-45.079-27.33-94.103-27.33-145.353c0-220.668,179.528-400.197,400.197-400.197c220.67,0,400.196,179.528,400.196,400.197
		c0,51.25-9.697,100.274-27.328,145.353c-24.182,61.809-63.305,116.179-112.911,158.657c2.517,18.644,3.941,37.324,4.237,55.963
		c72.472-53.331,128.318-127.975,158.219-214.62c15.73-45.589,24.297-94.487,24.297-145.353
		c0-246.317-200.391-446.709-446.71-446.709c-246.316,0-446.709,200.392-446.709,446.709c0,50.866,8.565,99.764,24.297,145.353
		C50.492,151.136,106.342,225.78,178.811,279.11z"/>
	<path fill="#FFFFFF" d="M443.005,365.847c54.824,0,107.362-9.948,155.931-28.1c2.411-17.079,3.62-34.321,3.601-51.625
		c-48.905,21.34-102.854,33.211-159.531,33.211c-56.678,0-110.627-11.868-159.532-33.211c-0.018,17.303,1.188,34.545,3.602,51.625
		C335.644,355.898,388.182,365.847,443.005,365.847z"/>
	<path fill="#FFFFFF" d="M546.432-320.882c9.118-12.128,18.91-23.718,29.318-34.725c2.586-2.735,5.198-5.443,7.859-8.104
		l-32.874-32.875c-14.927,14.924-28.795,30.904-41.503,47.805c-43.265,57.542-72.978,125.823-84.34,200.071
		c6.088,2.714,12.132,5.545,18.112,8.517c9.838-4.891,19.82-9.45,29.948-13.641C484.384-215.632,510.047-272.498,546.432-320.882z"
		/>
	<path fill="#FFFFFF" d="M509.232,187.055c12.708,16.901,26.576,32.88,41.503,47.805l32.874-32.874
		c-2.661-2.661-5.273-5.369-7.859-8.104c-10.408-11.006-20.2-22.596-29.318-34.724c-33.507-44.562-57.923-96.321-70.505-152.5
		c-10.414-9.086-21.433-17.565-32.922-25.52c-5.799,4.014-11.486,8.152-17.017,12.461
		C438.069,65.282,467.257,131.229,509.232,187.055z"/>
	<path fill="#FFFFFF" d="M660.782,408.723c48.34-169.026-7.714-353.816-144.754-467.067c-15.963,6.443-31.53,13.976-46.549,22.626
		c134.995,99.84,191.821,273.45,146.585,431.648c-8.812,30.812-21.474,61.044-38.208,90.025l40.282,23.257l0,0
		C636.819,476.863,650.949,443.117,660.782,408.723z"/>
	<path fill="#FFFFFF" d="M231.675-160.922c-18.115,0-36.078,1.162-53.825,3.327c-21.084,2.572-41.859,6.59-62.161,12.066
		l12.035,44.918c3.592-0.97,7.204-1.876,10.828-2.745c14.723-3.535,29.703-6.217,44.861-8.067
		c15.913-1.942,32.019-2.985,48.262-2.985c45.364,0,90.392,7.886,133.068,23.011c14.794-11.323,30.341-21.844,46.588-31.511
		C354.755-147.847,293.497-160.922,231.675-160.922z"/>
	<path fill="#FFFFFF" d="M308.152,485.956c-16.733-28.981-29.393-59.214-38.205-90.025C220.656,223.565,292.51,32.88,454.633-60.721
		c60.835-35.123,129.89-53.688,199.7-53.688c16.247,0,32.35,1.042,48.262,2.985c15.16,1.85,30.139,4.532,44.862,8.067
		c3.627,0.869,7.238,1.775,10.827,2.745l12.036-44.918c-20.305-5.476-41.077-9.494-62.16-12.066
		c-17.747-2.165-35.711-3.327-53.827-3.327c-77.965,0-155.063,20.721-222.956,59.919c-180.965,104.48-261.17,317.33-206.151,509.726
		c9.836,34.395,23.965,68.141,42.643,100.49l0,0l0,0L308.152,485.956z"/>
</g>
</svg>
